<svg id="Layer_1" data-name="Layer 1" xmlns="http://www.w3.org/2000/svg" viewBox="0 0 28 20.7"><defs><style>.cls-1{fill:#fff;}</style></defs><path class="cls-1" d="M25.12,7C22.7,5,18.86,4.67,18.7,4.65a.61.61,0,0,0-.6.36s-.22.63-.43,1.23a15.83,15.83,0,0,1,4.84,1.65A1,1,0,0,1,22,9.75a.93.93,0,0,1-.5-.14A14.53,14.53,0,0,0,15,8,14.53,14.53,0,0,0,8.5,9.61a1,1,0,1,1-1-1.72,15.7,15.7,0,0,1,4.85-1.65C12.13,5.63,11.91,5,11.9,5a.61.61,0,0,0-.6-.36c-.16,0-4,.35-6.45,2.32C3.56,8.16,1,15.09,1,21.09a.64.64,0,0,0,.08.3c1.77,3.11,6.6,3.92,7.7,4h0a.63.63,0,0,0,.49-.25l1.19-1.61a12.07,12.07,0,0,1-4.07-1.68,1,1,0,1,1,1.18-1.62S10.17,22,15,22s7.39-1.79,7.41-1.81a1,1,0,0,1,1.19,1.62,12.31,12.31,0,0,1-4.06,1.67l1.17,1.62a.61.61,0,0,0,.49.25h0c1.1,0,5.93-.85,7.7-4a.64.64,0,0,0,.08-.3C29,15.09,26.44,8.16,25.12,7ZM11,19a2.3,2.3,0,0,1-2-2.5A2.3,2.3,0,0,1,11,14a2.3,2.3,0,0,1,2,2.5A2.3,2.3,0,0,1,11,19Zm8,0a2.3,2.3,0,0,1-2-2.5A2.3,2.3,0,0,1,19,14a2.3,2.3,0,0,1,2,2.5A2.3,2.3,0,0,1,19,19Z" transform="translate(-1 -4.65)"/></svg>